# xmcd
#
# Track frame offsets:
#      151
#      14523
#      32918
#      47869
#      62447
#      73133
#      88273
#      110671
#      123351
#      139559
#      150940
#      161330
# 
# Disc length: 2344 seconds
#
# Revision: 1
# Processed by: cddbd v1.4PL0 Copyright (c) Steve Scherf et al.
#
# Submitted via: FreeRIP 1.21
#
DISCID=9d09260c
DTITLE=Mickey Raphael - Red River Valley
DYEAR=1900
DGENRE=country
TTITLE0=Red River Valley
TTITLE1=Streets Of Laredo
TTITLE2=Long, Long Ago
TTITLE3=Shenendoah
TTITLE4=You Are My Sunshine
TTITLE5=Home On The Range
TTITLE6=Down In The Valley
TTITLE7=Aura Lee
TTITLE8=Swanee River
TTITLE9=Sweet Besty From Pike
TTITLE10=Oh Susannah
TTITLE11=Amazing Grace
EXTD=
EXTT0=
EXTT1=
EXTT2=
EXTT3=
EXTT4=
EXTT5=
EXTT6=
EXTT7=
EXTT8=
EXTT9=
EXTT10=
EXTT11=
PLAYORDER=
